# xmcd
#
# Track frame offsets: 
#        200
#        13295
#        23727
#        36175
#        45012
#        57610
#        75155
#        90152
#        106232
#        122107
#        136595
#        151487
#        175892
#        195900
#
# Disc length: 2684 seconds
#
# Revision: 2
# Processed by: cddbd v1.5.2PL0 Copyright (c) Steve Scherf et al.
# Submitted via: ExactAudioCopy v1.1
#
DISCID=9a0a7a0e
DTITLE=Hoyt Axton - Spin Of The Wheel
DYEAR=1990
DGENRE=Country
TTITLE0=Spin Of The Wheel
TTITLE1=Heartbreak Hotel
TTITLE2=We Could've Been Sweethearts
TTITLE3=Young Man
TTITLE4=Mr. Winchester's Gun
TTITLE5=If You're A Cowboy
TTITLE6=American Dreams
TTITLE7=Mountain Right
TTITLE8=Cowboys On Horses With Wings
TTITLE9=I Collect Hearts
TTITLE10=We Were Buccaneers
TTITLE11=The Weight
TTITLE12=Thank You, Lord
TTITLE13=Blue Prelude
EXTD=
EXTT0=
EXTT1=
EXTT2=
EXTT3=
EXTT4=
EXTT5=
EXTT6=
EXTT7=
EXTT8=
EXTT9=
EXTT10=
EXTT11=
EXTT12=
EXTT13=
PLAYORDER=
